<svg viewBox="0 200 612 375"><path d="M 307.17 520.9 c -72.98 0 -145.95 0 -218.93 -0.02 c -1.53 0 -3.11 -0.13 -4.58 -0.52 c -2.14 -0.56 -3.47 -1.96 -4.05 -4.26 c -14.54 -58 -29.13 -115.99 -43.71 -173.97 c -1.41 -5.63 -2.82 -11.25 -4.22 -16.88 c -0.56 -2.23 -0.02 -3.63 1.96 -4.77 c 2.69 -1.54 5.52 -1.68 8.38 -0.54 c 2.79 1.1 5.54 2.29 8.31 3.44 c 45.55 18.99 91.1 37.97 136.64 56.97 c 2.26 0.94 4.53 1.29 6.93 0.72 c 1.77 -0.42 3.12 -1.4 4.27 -2.81 c 9.14 -11.15 18.31 -22.28 27.47 -33.42 c 24.9 -30.27 49.82 -60.52 74.65 -90.85 c 2.62 -3.2 6.84 -3.76 9.79 -2.87 c 1.48 0.45 2.66 1.28 3.65 2.48 c 12.47 15.18 24.95 30.35 37.43 45.52 c 21.7 26.38 43.43 52.75 65.07 79.18 c 2.49 3.04 7.13 3.7 10.43 2.34 c 2.82 -1.15 5.62 -2.34 8.43 -3.51 c 45.5 -18.97 91.01 -37.93 136.5 -56.91 c 2.52 -1.05 5.02 -1.37 7.62 -0.46 c 0.59 0.21 1.17 0.48 1.69 0.81 c 1.82 1.15 2.35 2.5 1.83 4.58 c -1.74 6.94 -3.48 13.88 -5.23 20.82 c -7.21 28.69 -14.43 57.38 -21.64 86.07 c -7.07 28.13 -14.15 56.25 -21.19 84.39 c -0.69 2.74 -2.69 3.76 -5.12 4.25 c -1.13 0.23 -2.31 0.22 -3.47 0.22 c -53.76 0.01 -107.52 0.01 -161.29 0.01 C 345.59 520.9 326.38 520.9 307.17 520.9 Z"></path></svg>